<svg id="svg" xmlns="http://www.w3.org/2000/svg" xmlns:xlink="http://www.w3.org/1999/xlink" width="400" height="403.3826638477801" viewBox="0, 0, 400,403.3826638477801" version="1.1"><g id="svgg"><path id="path0" d="M10.800 6.682 C 9.140 6.955,6.691 8.909,5.409 10.982 L 4.200 12.937 4.200 201.769 L 4.200 390.600 5.309 392.486 C 6.533 394.568,8.249 395.988,10.428 396.720 C 12.508 397.419,386.692 397.419,388.772 396.720 C 390.951 395.988,392.667 394.568,393.891 392.486 L 395.000 390.600 395.000 201.769 L 395.000 12.937 393.787 10.975 C 393.120 9.896,391.770 8.470,390.787 7.807 L 389.000 6.600 200.400 6.559 C 96.670 6.536,11.350 6.592,10.800 6.682 M376.200 201.800 L 376.200 378.600 199.600 378.600 L 23.000 378.600 22.898 202.200 C 22.841 105.180,22.881 25.575,22.985 25.300 C 23.137 24.900,58.687 24.819,199.688 24.900 L 376.200 25.000 376.200 201.800 M214.800 123.588 C 206.226 124.591,201.976 128.834,200.035 138.331 C 199.732 139.817,199.603 160.427,199.611 206.531 L 199.623 272.600 200.542 274.400 C 203.632 280.453,214.667 280.486,217.515 274.452 C 218.141 273.125,218.210 270.221,218.314 240.672 L 218.427 208.345 239.914 208.504 C 263.375 208.678,261.863 208.533,267.200 211.118 C 273.791 214.311,281.039 225.433,287.192 241.800 C 287.358 242.240,287.697 243.095,287.946 243.700 C 288.196 244.305,288.566 245.205,288.768 245.700 C 288.971 246.195,289.976 248.850,291.002 251.600 C 294.618 261.290,295.663 264.046,296.308 265.600 C 296.537 266.150,297.307 268.130,298.019 270.000 C 301.114 278.127,304.518 280.192,311.799 278.358 C 316.401 277.200,319.603 271.141,317.647 267.295 C 316.622 265.281,310.400 250.402,310.400 249.966 C 310.400 249.759,310.241 249.277,310.047 248.895 C 309.852 248.513,309.511 247.750,309.287 247.200 C 309.064 246.650,308.607 245.570,308.272 244.800 C 307.936 244.030,306.821 241.330,305.793 238.800 C 304.765 236.270,303.311 232.879,302.562 231.264 C 301.813 229.650,301.200 228.256,301.200 228.167 C 301.200 227.907,297.456 220.414,296.019 217.800 C 291.946 210.387,287.330 205.171,282.866 202.940 C 281.480 202.248,280.493 201.605,280.673 201.511 C 280.853 201.418,281.810 201.108,282.800 200.822 C 299.861 195.901,308.900 185.168,310.840 167.528 C 313.167 146.365,301.417 129.340,281.400 124.871 C 280.300 124.625,278.590 124.211,277.600 123.950 C 275.515 123.401,219.177 123.076,214.800 123.588 M109.027 124.857 C 99.195 126.118,94.975 130.410,93.619 140.529 C 93.005 145.112,93.039 271.401,93.655 273.240 C 95.942 280.070,107.284 281.088,110.981 274.794 C 111.786 273.424,111.802 272.833,111.913 240.306 L 112.026 207.213 147.543 207.106 L 183.059 207.000 184.719 205.901 C 188.372 203.483,189.206 196.121,186.202 192.802 C 184.136 190.519,185.726 190.618,147.400 190.400 L 112.200 190.200 112.200 167.782 C 112.200 143.075,112.088 144.209,114.688 142.506 C 115.692 141.847,118.397 141.787,155.245 141.600 L 194.726 141.400 196.235 140.179 C 201.714 135.743,200.264 126.607,193.800 124.842 C 191.828 124.303,113.235 124.317,109.027 124.857 M271.600 140.186 C 282.698 142.294,288.096 146.868,290.805 156.459 C 294.873 170.855,288.621 185.139,276.207 189.812 C 270.497 191.961,269.911 192.000,243.165 192.000 L 218.382 192.000 218.491 167.629 C 218.614 140.238,218.419 141.924,221.635 140.319 C 223.526 139.376,266.731 139.261,271.600 140.186 " stroke="none" fill="#1cbcf4" fill-rule="evenodd"></path><path id="path1" d="M0.000 201.600 L 0.000 403.200 200.000 403.200 L 400.000 403.200 400.000 201.600 L 400.000 0.000 200.000 0.000 L 0.000 0.000 0.000 201.600 M390.787 7.807 C 391.770 8.470,393.120 9.896,393.787 10.975 L 395.000 12.937 395.000 201.769 L 395.000 390.600 393.891 392.486 C 392.667 394.568,390.951 395.988,388.772 396.720 C 386.692 397.419,12.508 397.419,10.428 396.720 C 8.249 395.988,6.533 394.568,5.309 392.486 L 4.200 390.600 4.200 201.769 L 4.200 12.937 5.409 10.982 C 6.691 8.909,9.140 6.955,10.800 6.682 C 11.350 6.592,96.670 6.536,200.400 6.559 L 389.000 6.600 390.787 7.807 M22.985 25.300 C 22.881 25.575,22.841 105.180,22.898 202.200 L 23.000 378.600 199.600 378.600 L 376.200 378.600 376.200 201.800 L 376.200 25.000 199.688 24.900 C 58.687 24.819,23.137 24.900,22.985 25.300 M277.600 123.950 C 278.590 124.211,280.300 124.625,281.400 124.871 C 294.857 127.875,305.011 136.620,308.725 148.400 C 316.442 172.884,305.924 194.152,282.800 200.822 C 281.810 201.108,280.853 201.418,280.673 201.511 C 280.493 201.605,281.480 202.248,282.866 202.940 C 287.330 205.171,291.946 210.387,296.019 217.800 C 297.456 220.414,301.200 227.907,301.200 228.167 C 301.200 228.256,301.813 229.650,302.562 231.264 C 303.311 232.879,304.765 236.270,305.793 238.800 C 306.821 241.330,307.936 244.030,308.272 244.800 C 308.607 245.570,309.064 246.650,309.287 247.200 C 309.511 247.750,309.852 248.513,310.047 248.895 C 310.241 249.277,310.400 249.759,310.400 249.966 C 310.400 250.402,316.622 265.281,317.647 267.295 C 319.603 271.141,316.401 277.200,311.799 278.358 C 304.518 280.192,301.114 278.127,298.019 270.000 C 297.307 268.130,296.537 266.150,296.308 265.600 C 295.663 264.046,294.618 261.290,291.002 251.600 C 289.976 248.850,288.971 246.195,288.768 245.700 C 288.566 245.205,288.196 244.305,287.946 243.700 C 287.697 243.095,287.358 242.240,287.192 241.800 C 281.039 225.433,273.791 214.311,267.200 211.118 C 261.863 208.533,263.375 208.678,239.914 208.504 L 218.427 208.345 218.314 240.672 C 218.210 270.221,218.141 273.125,217.515 274.452 C 214.667 280.486,203.632 280.453,200.542 274.400 L 199.623 272.600 199.611 206.531 C 199.603 160.427,199.732 139.817,200.035 138.331 C 201.976 128.834,206.226 124.591,214.800 123.588 C 219.177 123.076,275.515 123.401,277.600 123.950 M193.800 124.842 C 200.264 126.607,201.714 135.743,196.235 140.179 L 194.726 141.400 155.245 141.600 C 118.397 141.787,115.692 141.847,114.688 142.506 C 112.088 144.209,112.200 143.075,112.200 167.782 L 112.200 190.200 147.400 190.400 C 185.726 190.618,184.136 190.519,186.202 192.802 C 189.206 196.121,188.372 203.483,184.719 205.901 L 183.059 207.000 147.543 207.106 L 112.026 207.213 111.913 240.306 C 111.802 272.833,111.786 273.424,110.981 274.794 C 107.284 281.088,95.942 280.070,93.655 273.240 C 93.039 271.401,93.005 145.112,93.619 140.529 C 94.975 130.410,99.195 126.118,109.027 124.857 C 113.235 124.317,191.828 124.303,193.800 124.842 M221.635 140.319 C 218.419 141.924,218.614 140.238,218.491 167.629 L 218.382 192.000 243.165 192.000 C 269.911 192.000,270.497 191.961,276.207 189.812 C 288.621 185.139,294.873 170.855,290.805 156.459 C 288.096 146.868,282.698 142.294,271.600 140.186 C 266.731 139.261,223.526 139.376,221.635 140.319 " stroke="none" fill="#fcfcfc" fill-rule="evenodd"></path></g></svg>